<svg version="1.1" xmlns="http://www.w3.org/2000/svg" viewBox="-4238.822727272727 -1045.2 7514.522727272726 2824.6"><desc>Created with Snap</desc><defs></defs><g><rect x="-4238.822727272727" y="-1045.2" width="7514.522727272726" height="2824.6" fill="#ff5376" style=""></rect><g><g transform="matrix(0.5,0,0,-0.5,0,0)"><path d="M793 368Q793 477 734 535Q675 593 521 648Q367 703 285 763Q204 824 163 901Q123 979 123 1079Q123 1252 238 1364Q354 1476 541 1476Q669 1476 769 1418Q869 1361 923 1259Q977 1157 977 1035L793 1035Q793 1170 728 1244Q663 1318 541 1318Q430 1318 369 1256Q308 1194 308 1082Q308 990 374 928Q440 866 578 817Q793 746 885 642Q978 538 978 370Q978 193 863 86Q748 -20 550 -20Q423 -20 315 35Q208 91 146 191Q85 292 85 422L269 422Q269 287 344 212Q420 137 550 137Q671 137 732 199Q793 261 793 368ZM1934 0L1750 0Q1734 35 1727 118Q1633 -20 1487 -20Q1340 -20 1257 62Q1175 145 1175 295Q1175 460 1287 557Q1399 654 1594 656L1724 656L1724 771Q1724 868 1681 909Q1638 950 1550 950Q1470 950 1420 902Q1370 855 1370 782L1193 782Q1193 865 1242 940Q1291 1016 1374 1059Q1457 1102 1559 1102Q1725 1102 1811 1019Q1898 937 1900 779L1900 233Q1901 108 1934 16L1934 0ZM1514 141Q1579 141 1638 177Q1697 213 1724 267L1724 525L1624 525Q1498 523 1425 468Q1352 414 1352 316Q1352 224 1389 182Q1426 141 1514 141ZM2175 1082L2341 1082L2345 982Q2444 1102 2606 1102Q2787 1102 2859 945Q2961 1102 3143 1102Q3442 1102 3449 729L3449 0L3273 0L3273 712Q3273 830 3231 887Q3189 945 3089 945Q3009 945 2959 883Q2909 821 2901 725L2901 0L2723 0L2723 720Q2720 945 2540 945Q2406 945 2351 811L2351 0L2175 0L2175 1082ZM3716 1082L3882 1082L3886 982Q3985 1102 4147 1102Q4328 1102 4400 945Q4502 1102 4684 1102Q4983 1102 4990 729L4990 0L4814 0L4814 712Q4814 830 4772 887Q4730 945 4630 945Q4550 945 4500 883Q4450 821 4442 725L4442 0L4264 0L4264 720Q4261 945 4081 945Q3947 945 3892 811L3892 0L3716 0L3716 1082ZM5352 1082L5552 294L5749 1082L5937 1082L5583 -153Q5543 -292 5470 -365Q5397 -437 5304 -437Q5268 -437 5212 -421L5212 -271L5251 -275Q5328 -275 5371 -239Q5415 -202 5442 -112L5477 9L5159 1082L5352 1082Z" fill="#292929" style=""></path></g></g><g transform="matrix(1,0,0,1,7,1253.7)"><g transform="matrix(0.5,0,0,-0.5,0,0)"><path d="M254 1456L435 459L454 296L483 440L716 1456L869 1456L1095 440L1124 292L1145 460L1323 1456L1506 1456L1216 0L1051 0L808 1061L793 1147L778 1061L526 0L360 0L71 1456L254 1456ZM1788 1082L1988 294L2185 1082L2373 1082L2019 -153Q1979 -292 1906 -365Q1833 -437 1740 -437Q1704 -437 1648 -421L1648 -271L1687 -275Q1764 -275 1807 -239Q1851 -202 1878 -112L1913 9L1595 1082L1788 1082ZM2546 1082L2712 1082L2716 982Q2815 1102 2977 1102Q3158 1102 3230 945Q3332 1102 3514 1102Q3813 1102 3820 729L3820 0L3644 0L3644 712Q3644 830 3602 887Q3560 945 3460 945Q3380 945 3330 883Q3280 821 3272 725L3272 0L3094 0L3094 720Q3091 945 2911 945Q2777 945 2722 811L2722 0L2546 0L2546 1082ZM4473 -20Q4271 -20 4163 100Q4055 221 4053 454L4053 585Q4053 827 4158 964Q4264 1102 4453 1102Q4643 1102 4737 981Q4831 860 4833 604L4833 488L4229 488L4229 463Q4229 289 4294 210Q4360 131 4483 131Q4561 131 4620 160Q4680 190 4732 254L4824 142Q4709 -20 4473 -20ZM4453 950Q4343 950 4290 874Q4237 799 4230 640L4656 640L4656 664Q4649 818 4600 884Q4552 950 4453 950ZM5491 1088L5492 916Q5455 923 5412 923Q5276 923 5222 774L5222 0L5045 0L5045 1082L5217 1082L5220 972Q5291 1102 5421 1102Q5463 1102 5491 1088Z" fill="#292929" style=""></path></g></g><g transform="matrix(2.9548,0,0,2.9548,-4057.2023,1442.6519)"><g transform="matrix(0.5,0,0,-0.5,0,0)"><path d="M793 368Q793 477 734 535Q675 593 521 648Q367 703 285 763Q204 824 163 901Q123 979 123 1079Q123 1252 238 1364Q354 1476 541 1476Q669 1476 769 1418Q869 1361 923 1259Q977 1157 977 1035L793 1035Q793 1170 728 1244Q663 1318 541 1318Q430 1318 369 1256Q308 1194 308 1082Q308 990 374 928Q440 866 578 817Q793 746 885 642Q978 538 978 370Q978 193 863 86Q748 -20 550 -20Q423 -20 315 35Q208 91 146 191Q85 292 85 422L269 422Q269 287 344 212Q420 137 550 137Q671 137 732 199Q793 261 793 368ZM1315 1456L1496 459L1515 296L1544 440L1777 1456L1930 1456L2156 440L2185 292L2206 460L2384 1456L2567 1456L2277 0L2112 0L1869 1061L1854 1147L1839 1061L1587 0L1421 0L1132 1456L1315 1456Z" fill="#292929" style=""></path></g></g></g></svg>